<?xml version="1.0" encoding="UTF-8" standalone="no"?>
<svg
   viewBox="0 0 35.206097 33.705143"
   version="1.1"
   id="svg1"
   sodipodi:docname="alcampo.svg"
   width="35.206097"
   height="33.705143"
   inkscape:version="1.4.4 (dcaf3e7, 2026-05-05)"
   xmlns:inkscape="http://www.inkscape.org/namespaces/inkscape"
   xmlns:sodipodi="http://sodipodi.sourceforge.net/DTD/sodipodi-0.dtd"
   xmlns="http://www.w3.org/2000/svg"
   xmlns:svg="http://www.w3.org/2000/svg">
  <defs
     id="defs1">
    <clipPath
       clipPathUnits="userSpaceOnUse"
       id="clipPath1">
      <rect
         style="opacity:0.565217;fill:#000000"
         id="rect2"
         width="35.214977"
         height="33.779224"
         x="0.18111965"
         y="0.63391876" />
    </clipPath>
  </defs>
  <sodipodi:namedview
     id="namedview1"
     pagecolor="#ffffff"
     bordercolor="#000000"
     borderopacity="0.25"
     inkscape:showpageshadow="2"
     inkscape:pageopacity="0.0"
     inkscape:pagecheckerboard="0"
     inkscape:deskcolor="#d1d1d1"
     inkscape:zoom="4.5582012"
     inkscape:cx="37.843876"
     inkscape:cy="38.9408"
     inkscape:window-width="1920"
     inkscape:window-height="1129"
     inkscape:window-x="-8"
     inkscape:window-y="-8"
     inkscape:window-maximized="1"
     inkscape:current-layer="svg1" />
  <path
     d="m 133.928,13.485 c 5.105,0 7.742,3.106 7.742,10.294 0,7.103 -3.7,10.974 -10.464,10.974 -0.643,0 -1.352,-0.067 -2.279,-0.202 l -0.358,-0.053 v 6.21 h -6.636 V 13.911 h 5.402 l 0.34,2.254 c 1.149,-1.659 3.233,-2.68 6.253,-2.68 m 20.373,0 c 6.721,0 10.38,3.744 10.38,10.634 0,6.89 -3.659,10.634 -10.38,10.634 -6.72,0 -10.378,-3.743 -10.378,-10.634 0,-6.89 3.659,-10.633 10.378,-10.634 m -79.068,0.001 c 1.7,0 3.108,0.08 4.317,0.215 l 0.64,0.079 0.604,0.089 c 0.49,0.078 0.944,0.165 1.374,0.26 l 0.503,0.116 q 0.246,0.06 0.482,0.123 l 0.465,0.128 0.226,0.065 0.662,0.201 v 19.566 h -5.402 l -0.34,-2.254 c -1.15,1.659 -3.234,2.68 -6.253,2.68 -4.935,0 -7.486,-2.978 -7.486,-9.869 0,-7.358 3.615,-11.399 10.208,-11.399 m -18.758,0 c 2.812,0 4.625,0.45 6.225,1.07 l 0.475,0.192 0.234,0.099 -0.936,5.572 c -1.233,-0.808 -2.637,-1.276 -4.38,-1.276 -3.234,0 -4.936,1.829 -4.936,4.806 0,3.106 1.702,5.147 4.978,5.147 1.585,0 2.883,-0.447 4.17,-1.065 l 0.594,-0.296 0.936,5.19 c -1.277,0.85 -4.34,1.828 -7.53,1.828 -6.635,0 -10.037,-3.573 -10.037,-10.549 0,-6.933 3.615,-10.719 10.207,-10.719 z M 3.135,25.788 h 7.859 l -2.733,8.56 H 0.19 c 0.459,-1.437 0.912,-2.797 1.356,-4.09 l 0.53,-1.522 0.52,-1.463 z m 19.887,1.066 2.674,7.495 h -1.868 l -2.55,-7.156 a 16,16 0 0 0 1.744,-0.339 m 7.266,-6.346 0.822,2.12 c 1.245,3.228 2.537,6.655 3.775,10.248 l 0.5,1.473 h -7.982 l -2.861,-8.062 c 3.055,-1.485 4.363,-2.921 5.746,-5.78 z M 26.887,6.838 c 2.275,0 3.854,1.326 4.396,2.223 l 0.068,0.12 h 2.972 c 0.188,0 0.244,0.193 0.141,0.301 l -0.054,0.04 -2.76,1.277 -0.112,0.707 -0.116,0.641 -0.074,0.383 -0.133,0.64 -0.159,0.711 -0.187,0.768 -0.14,0.537 -0.154,0.554 -0.082,0.282 -0.174,0.571 -0.188,0.578 c -0.487,1.451 -1.107,2.934 -1.883,4.189 -1.75,2.83 -4.526,3.948 -6.712,4.366 l -0.43,0.075 -0.41,0.058 -0.197,0.023 -0.377,0.036 -0.351,0.024 -0.323,0.013 -0.323,0.004 2.997,8.39 h -1.871 l -3.265,-9.157 c -0.042,-0.127 -0.01,-0.217 0.088,-0.253 l 0.476,-0.19 0.391,-0.162 0.33,-0.146 0.291,-0.141 0.277,-0.145 0.44,-0.25 0.345,-0.203 c 1.986,-1.276 3.313,-3.189 4.117,-4.691 l 0.237,-0.46 0.106,-0.218 0.186,-0.405 0.154,-0.36 c 0.044,-0.082 0.03,-0.18 -0.056,-0.222 -0.18,0.316 -0.373,0.626 -0.57,0.93 -2.292,3.463 -5.74,5.961 -11.288,6.102 l -0.495,0.006 H 3.942 c -0.188,0 -0.212,-0.164 -0.156,-0.262 l 0.03,-0.037 2.123,-2.172 C 3.06,21.913 1.374,20.277 0.69,18.397 L 0.61,18.164 0.585,18.066 C 0.57,17.983 0.58,17.903 0.675,17.876 l 0.082,-0.009 h 9.05 c 0.84,0 1.476,-0.242 1.997,-0.631 l 0.17,-0.135 7.191,-6.024 0.546,-0.467 0.515,-0.432 0.482,-0.395 0.446,-0.357 0.596,-0.467 0.345,-0.264 0.864,-0.634 0.17,-0.119 C 24.24,7.217 25.475,6.839 26.887,6.839 Z m 85.477,6.646 c 4.375,0 6.505,2.327 6.59,7.06 l 0.002,0.3 v 13.483 h -6.592 v -12.59 c 0,-1.914 -1.02,-2.978 -2.85,-2.978 -1.04,0 -2.27,0.64 -2.872,1.284 l -0.105,0.12 v 14.164 h -6.593 v -12.59 c 0,-1.914 -1.02,-2.978 -2.85,-2.978 -1.04,0 -2.27,0.64 -2.872,1.284 l -0.105,0.12 V 34.327 H 87.48 V 13.91 h 5.36 l 0.425,2.254 c 1.446,-1.574 3.36,-2.68 6.678,-2.68 2.723,0 4.594,0.936 5.615,2.765 1.532,-1.616 3.488,-2.765 6.806,-2.765 M 43.758,6.254 V 34.327 H 37.123 V 6.255 Z m 88.001,12.505 c -1.526,0 -2.484,0.645 -3.087,1.29 l -0.104,0.114 v 9.017 l 0.43,0.096 c 0.693,0.143 1.307,0.202 2.335,0.202 2.298,0 3.446,-1.83 3.446,-5.444 0,-3.487 -1.063,-5.275 -3.02,-5.275 m -56.655,0 q -3.19,0 -3.19,5.87 c 0,3.19 0.979,4.85 2.766,4.85 1.526,0 2.484,-0.646 3.087,-1.291 L 77.87,28.074 V 19.06 c -0.893,-0.213 -1.532,-0.299 -2.766,-0.299 z m 79.197,0.34 c -2.466,0 -3.487,1.702 -3.487,5.02 0,3.36 1.021,5.019 3.487,5.019 2.468,0 3.49,-1.66 3.49,-5.02 0,-3.317 -1.022,-5.019 -3.49,-5.019 M 13.332,0.708 h 9.052 l 0.462,0.96 0.683,1.467 1.18,2.58 C 23.347,6.1 22.245,6.8 20.86,7.878 L 20.249,8.364 19.246,9.182 18.697,7.838 A 82,82 0 0 0 17.877,5.901 C 17.06,7.653 16.275,9.699 15.522,11.75 l -0.32,0.88 -4.08,3.364 c -0.373,0.337 -0.809,0.442 -1.31,0.463 l -0.22,0.004 H 6.319 L 6.689,15.569 7.415,13.841 8.12,12.19 8.632,11.006 9.762,8.439 11.055,5.578 12.421,2.634 Z m 13.003,8.909 a 1.48,1.48 0 0 0 0,2.099 1.48,1.48 0 0 0 2.4,-1.644 0.836,0.836 0 0 1 -0.818,0.96 0.838,0.838 0 0 1 0,-1.676 c 0.07,0 0.139,0.015 0.209,0.031 a 1.47,1.47 0 0 0 -1.79,0.23 z"
     fill="#e1251b"
     id="path1"
     clip-path="url(#clipPath1)"
     transform="translate(-0.19,-0.708)" />
</svg>
